<svg version="1.1" id="Camada_1" xmlns="http://www.w3.org/2000/svg" x="0" y="0" viewBox="0 0 2500 554" style="enable-background:new 0 0 2500 554" xml:space="preserve"><style>.st2{fill:#253858}</style><path d="M11.4 232.6C5.2 232.5.1 237.5 0 243.7c0 .7 0 1.3.1 2L48 536.2c1.2 7.3 7.6 12.7 15 12.8h229.6c5.6.1 10.4-4 11.3-9.5l48-293.8c1-6.1-3.2-11.9-9.3-12.9-.6-.1-1.3-.2-2-.1l-329.2-.1zm201.6 210h-73.3L119.9 339h110.9L213 442.6z" style="fill:#2684ff"/><linearGradient id="SVGID_1_" gradientUnits="userSpaceOnUse" x1="548.633" y1="280.277" x2="420.373" y2="180.133" gradientTransform="matrix(1.3635 0 0 -1.3635 -386.975 750.128)"><stop offset=".18" style="stop-color:#0052cc"/><stop offset="1" style="stop-color:#2684ff"/></linearGradient><path d="M336.5 338.9H230.7L213 442.6h-73.3L53.1 545.3c2.7 2.4 6.2 3.7 9.9 3.7h229.7c5.6.1 10.4-4 11.3-9.5l32.5-200.6z" style="fill:url(#SVGID_1_)"/><path class="st2" d="M904.9 29.4c0 14.7 6.8 26.3 33.4 31.4 15.8 3.3 19.2 5.6 19.2 11.3 0 5.6-3.3 8.5-14.5 8.5-13.5-.2-26.7-3.8-38.5-10.4V94c11.8 5.9 25 8.8 38.2 8.3 27.8 0 38.8-12.4 38.8-30.8m0 0c0-17.4-9.2-25.5-35.2-31.1-14.3-3.2-17.8-6.3-17.8-10.9 0-5.6 5.1-8.2 14.7-8.2 11.6.4 23.1 3.2 33.5 8.3V7.1c-10.3-4.8-21.5-7.2-32.9-7-25.7 0-39 11.3-39 29.4M1261.8 1.5v99.2h21.1V25.1l8.9 20.1 29.9 55.5h26.6V1.5h-21.1v64l-8-18.5-24-45.4-33.4-.1zM1104.3 1.5h23.1v99.2h-23.1V1.5zM1077.6 71.4c0-17.4-9.2-25.5-35.2-31.1-14.3-3.2-17.8-6.3-17.8-10.9 0-5.6 5.1-8.2 14.7-8.2 11.6.4 23.1 3.2 33.5 8.3V7c-10.3-4.8-21.5-7.1-32.8-7-25.7 0-39 11.3-39 29.4 0 14.7 6.8 26.3 33.4 31.4 15.8 3.3 19.2 5.6 19.2 11.3 0 5.6-3.3 8.5-14.5 8.5-13.5-.2-26.7-3.8-38.5-10.4V94c11.8 5.9 25 8.8 38.2 8.3 27.8 0 38.8-12.4 38.8-30.9M725.4 1.5v99.2h47.5l7.4-21.4h-31.7V1.5h-23.2zM631.6 1.5V23h25.7v77.7h23.2V23H708V1.5h-76.4zM597.7 1.5h-30.4l-34.6 99.2h26.4l4.9-16.9c12.1 3.5 24.9 3.5 37 0l4.9 16.9h26.4L597.7 1.5zm-15.2 64.6c-4.3 0-8.6-.6-12.7-1.8L582.5 21l12.7 43.3c-4.1 1.2-8.3 1.8-12.5 1.8h-.2zM854.8 1.5h-30.4l-34.6 99.2h26.4l4.9-16.9c12.1 3.5 24.9 3.5 37 0l4.9 16.9h26.4L854.8 1.5zm-15.2 64.6c-4.3 0-8.6-.6-12.7-1.8L839.6 21l12.7 43.3c-4.2 1.2-8.5 1.8-12.7 1.8zM1210.6 1.5h-30.4l-34.6 99.2h26.4l4.9-16.9c12.1 3.5 24.9 3.5 37 0l4.9 16.9h26.4l-34.6-99.2zm-15.3 64.6c-4.3 0-8.6-.6-12.7-1.8l12.7-43.4 12.7 43.3c-4.1 1.3-8.4 1.9-12.7 1.9zM659 223.1c66.5 0 98.7 32.8 98.7 85.4 0 39.5-17.9 63.5-54.6 72.4 48.1 7.9 71.9 34.2 71.9 80.4 0 52.1-35.2 87.8-108.1 87.8H532.5v-326H659zm-81.9 42.7V363H653c42.2 0 59.5-19.3 59.5-50.7s-18.8-46.6-59.5-46.6l-75.9.1zm0 136.9v101.5h91.3c42.7 0 62-15.4 62-48.1 0-34.7-18.4-53.6-63-53.6l-90.3.2zM848 205.7c15.3-1.1 28.7 10.4 29.8 25.8.1 1.3.1 2.7 0 4 0 16.4-13.3 29.8-29.8 29.7-16.4 0-29.7-13.3-29.7-29.7-1.1-15.3 10.4-28.7 25.8-29.8 1.3-.1 2.6-.1 3.9 0zm-21.8 95.2h42.7V549h-42.7V300.9zM1031.8 507.4c9-.3 18-1.4 26.8-3.5V545c-9.3 2.7-19 4-28.8 3.9-53.1 0-78.9-31.2-78.9-77.4v-131h-40.2V301h40.2v-52.8h41.4V301h66v39.5h-66v130.2c.1 21.7 13 36.7 39.5 36.7zM1234.5 554c-36.2 0-64-16.3-78.9-48.6V549h-42.7V197.3h43v148.3c15.9-32.8 45.7-49.6 83.8-49.6 66 0 99.2 56 99.2 129-.2 69.9-35 129-104.4 129zm-6.5-218.3c-38.3 0-72.2 24.4-72.2 79.4v19.8c0 55.1 31.2 79.4 67.7 79.4 48.1 0 72.9-31.7 72.9-89.3-.4-59.6-24.2-89.3-68.4-89.3zM1383.3 300.9h42.7V451c0 44.6 17.9 64.5 58.5 64.5 39.5 0 67-26.3 67-76.4V300.9h42.7V549h-42.7v-40.6c-15.5 28.7-45.7 46.3-78.4 45.7-57.1 0-89.8-39.5-89.8-107.7V300.9zM1833.8 542.6c-14.9 7.9-37.7 11.3-60.5 11.3-88.3 0-129.7-53.6-129.7-129.7 0-74.9 41.2-128.5 129.7-128.5 20.4-.6 40.6 3.6 59.1 12.2v39.5c-17.6-8.2-36.9-12.3-56.4-11.7-64.5 0-90.8 40.7-90.8 88.8s27 88.6 92 88.6c19.2.5 38.3-2.5 56.4-8.9l.2 38.4zM1882.4 549V197.3h42.7v219.9l106.7-116.1h55.6l-116.6 121.7L2092.2 549h-58.1L1925 432.9V549h-42.6zM2233.6 554c-92.8 0-133.4-53.6-133.4-129.7 0-74.9 41.7-128.5 117.1-128.5 76.4 0 107.1 53.1 107.1 128.5v19.3h-181.1c6 42.2 33.3 69.5 91.8 69.5 25.7 0 51.3-4.6 75.4-13.4v39.5c-20.3 10.8-51.6 14.8-76.9 14.8zm-90.7-146.6h138.4c-2.5-46.1-23.3-72.4-66-72.4-45.2-.2-68 29-72.4 72.2v.2zM2473.2 507.4c9-.3 18-1.4 26.8-3.5V545c-9.3 2.7-19 4-28.8 3.9-53.1 0-78.9-31.2-78.9-77.4v-131h-40.2V301h40.2v-52.8h41.7V301h66v39.5h-66v130.2c0 21.7 12.8 36.7 39.2 36.7z"/></svg>